# xmcd
# 
# Track frame offsets:
#     150
#     24845
#     42882
#     66302
#     87092
#     110042
#     133335
#     156622
#     179312
# 
# Disc length: 2687
# 
# Revision: 6
# Processed by: cddbd v1.5.2PL0 Copyright (c) Steve Scherf et al.
# Submitted via: BonkEnc v1.0.8
# 
DISCID=7b0a7d09
DTITLE=岡村孝子 - SOLEIL
DYEAR=0
DGENRE=
TTITLE0=TODAY
TTITLE1=ドラマ
TTITLE2=あなたと生きた季節
TTITLE3=ソレイユ
TTITLE4=クリスマスの夜
TTITLE5=輝き
TTITLE6=私の空
TTITLE7=Believe
TTITLE8=白い夏
EXTD=
EXTT0=
EXTT1=
EXTT2=
EXTT3=
EXTT4=
EXTT5=
EXTT6=
EXTT7=
EXTT8=
PLAYORDER=
